<svg width="48" height="48" viewBox="0 0 48 48" fill="none"
    xmlns="http://www.w3.org/2000/svg">
    <g clip-path="url(#clip0_203_57)">
        <path d="M14.4935 37.237C21.9045 37.237 27.862 31.2424 27.862 23.8685C27.862 16.4575 21.9045 10.5 14.4935 10.5C7.11959 10.5 1.125 16.4575 1.125 23.8685C1.125 31.2424 7.11959 37.237 14.4935 37.237ZM14.4935 35.3272C8.19119 35.3272 3.03478 30.1708 3.03478 23.8685C3.03478 17.5291 8.19119 12.4098 14.4935 12.4098C20.8329 12.4098 25.9522 17.5291 25.9522 23.8685C25.9522 30.1708 20.8329 35.3272 14.4935 35.3272ZM14.4935 34.5633C20.4138 34.5633 25.1883 29.7517 25.1883 23.8685C25.1883 17.9482 20.4138 13.1737 14.4935 13.1737C8.61028 13.1737 3.7987 17.9482 3.7987 23.8685C3.7987 29.7517 8.61028 34.5633 14.4935 34.5633ZM14.4935 32.6535C9.64475 32.6535 5.70848 28.7172 5.70848 23.8685C5.70848 19.0198 9.64475 15.0835 14.4935 15.0835C19.3422 15.0835 23.2785 19.0198 23.2785 23.8685C23.2785 28.7172 19.3422 32.6535 14.4935 32.6535ZM29.7717 37.237H38.822C43.9784 37.237 46.6521 33.5712 46.6521 29.4068C46.6521 27.2318 45.7768 25.2796 44.3232 23.8685C45.7768 22.4574 46.6521 20.468 46.6521 18.3301C46.6521 13.9747 43.1402 10.5 38.822 10.5H29.7717V12.4098H38.822C42.0686 12.4098 44.7423 15.0463 44.7423 18.3301C44.7423 20.85 43.1402 23.0303 40.8856 23.8685C43.1402 24.7067 44.7423 26.8499 44.7423 29.4068C44.7423 32.6535 42.0686 35.3272 38.822 35.3272H31.6815V15.0835H32.4454V34.5633H38.822C41.6495 34.5633 43.9784 32.2344 43.9784 29.4068C43.9784 26.5422 41.6495 24.2504 38.822 24.2504H34.2809V23.4865H38.822C41.6495 23.4865 43.9784 21.1576 43.9784 18.3301C43.9784 15.4654 41.6495 13.1737 38.822 13.1737H29.7717V37.237ZM34.3552 21.5767V15.0835H38.822C40.6204 15.0835 42.0686 16.537 42.0686 18.3301C42.0686 20.1232 40.6204 21.5767 38.822 21.5767H34.3552ZM34.3552 32.6535V26.1602H38.822C40.6204 26.1602 42.0686 27.6138 42.0686 29.4068C42.0686 32.5368 39.013 32.4254 38.822 32.6535H34.3552Z" fill="white"/>
    </g>
    <defs>
        <clipPath id="clip0_203_57">
            <rect width="45.5271" height="26.7369" fill="white" transform="translate(1.125 10.5)"/>
        </clipPath>
    </defs>
    <style>
    @media (prefers-color-scheme:white){:root{filter:invert(100%)}}
    </style>
</svg>
